<mxfile host="app.diagrams.net" agent="Mozilla/5.0 (Windows NT 10.0; Win64; x64) AppleWebKit/537.36 (KHTML, like Gecko) Chrome/137.0.0.0 Safari/537.36" version="27.1.5">
  <diagram name="Page-1" id="2eZ_GCdV6dQ0g9_JoYC3">
    <mxGraphModel dx="2208" dy="1818" grid="1" gridSize="10" guides="1" tooltips="1" connect="1" arrows="1" fold="1" page="1" pageScale="1" pageWidth="850" pageHeight="1100" math="0" shadow="0">
      <root>
        <mxCell id="0" />
        <mxCell id="1" parent="0" />
        <mxCell id="fUjeLNTMd9WjojMspVFU-1" value="" style="rounded=0;whiteSpace=wrap;html=1;" vertex="1" parent="1">
          <mxGeometry width="850" height="60" as="geometry" />
        </mxCell>
        <mxCell id="fUjeLNTMd9WjojMspVFU-2" value="" style="rounded=0;whiteSpace=wrap;html=1;" vertex="1" parent="1">
          <mxGeometry y="1030" width="850" height="60" as="geometry" />
        </mxCell>
        <mxCell id="fUjeLNTMd9WjojMspVFU-3" value="" style="swimlane;startSize=0;" vertex="1" parent="1">
          <mxGeometry x="10" y="210" width="830" height="300" as="geometry" />
        </mxCell>
        <mxCell id="fUjeLNTMd9WjojMspVFU-7" style="edgeStyle=orthogonalEdgeStyle;rounded=0;orthogonalLoop=1;jettySize=auto;html=1;" edge="1" parent="fUjeLNTMd9WjojMspVFU-3" source="fUjeLNTMd9WjojMspVFU-6" target="fUjeLNTMd9WjojMspVFU-3">
          <mxGeometry relative="1" as="geometry">
            <Array as="points">
              <mxPoint x="245" y="130" />
              <mxPoint x="245" y="130" />
            </Array>
          </mxGeometry>
        </mxCell>
        <mxCell id="fUjeLNTMd9WjojMspVFU-6" value="" style="rounded=0;whiteSpace=wrap;html=1;" vertex="1" parent="fUjeLNTMd9WjojMspVFU-3">
          <mxGeometry x="30" y="30" width="430" height="230" as="geometry" />
        </mxCell>
        <mxCell id="fUjeLNTMd9WjojMspVFU-8" value="" style="rounded=0;whiteSpace=wrap;html=1;" vertex="1" parent="fUjeLNTMd9WjojMspVFU-3">
          <mxGeometry x="590" y="30" width="170" height="80" as="geometry" />
        </mxCell>
        <mxCell id="fUjeLNTMd9WjojMspVFU-4" value="" style="rounded=0;whiteSpace=wrap;html=1;" vertex="1" parent="1">
          <mxGeometry x="10" y="70" width="140" height="40" as="geometry" />
        </mxCell>
        <mxCell id="fUjeLNTMd9WjojMspVFU-5" value="" style="rounded=0;whiteSpace=wrap;html=1;" vertex="1" parent="1">
          <mxGeometry x="10" y="140" width="830" height="60" as="geometry" />
        </mxCell>
        <mxCell id="fUjeLNTMd9WjojMspVFU-9" value="" style="rounded=0;whiteSpace=wrap;html=1;" vertex="1" parent="1">
          <mxGeometry x="120" width="60" height="50" as="geometry" />
        </mxCell>
        <mxCell id="fUjeLNTMd9WjojMspVFU-10" value="" style="rounded=0;whiteSpace=wrap;html=1;" vertex="1" parent="1">
          <mxGeometry x="280" y="25" width="60" height="10" as="geometry" />
        </mxCell>
        <mxCell id="fUjeLNTMd9WjojMspVFU-11" value="" style="rounded=0;whiteSpace=wrap;html=1;" vertex="1" parent="1">
          <mxGeometry x="380" y="30" width="60" height="10" as="geometry" />
        </mxCell>
        <mxCell id="fUjeLNTMd9WjojMspVFU-12" value="" style="rounded=0;whiteSpace=wrap;html=1;" vertex="1" parent="1">
          <mxGeometry x="500" y="30" width="60" height="10" as="geometry" />
        </mxCell>
        <mxCell id="fUjeLNTMd9WjojMspVFU-16" value="" style="rounded=0;whiteSpace=wrap;html=1;" vertex="1" parent="1">
          <mxGeometry x="590" y="30" width="60" height="10" as="geometry" />
        </mxCell>
        <mxCell id="fUjeLNTMd9WjojMspVFU-17" value="" style="rounded=0;whiteSpace=wrap;html=1;" vertex="1" parent="1">
          <mxGeometry x="770" y="1035" width="60" height="50" as="geometry" />
        </mxCell>
        <mxCell id="fUjeLNTMd9WjojMspVFU-18" value="" style="rounded=0;whiteSpace=wrap;html=1;" vertex="1" parent="1">
          <mxGeometry x="680" y="1030" width="60" height="50" as="geometry" />
        </mxCell>
        <mxCell id="fUjeLNTMd9WjojMspVFU-19" value="" style="rounded=0;whiteSpace=wrap;html=1;" vertex="1" parent="1">
          <mxGeometry x="600" y="1030" width="60" height="50" as="geometry" />
        </mxCell>
        <mxCell id="fUjeLNTMd9WjojMspVFU-20" value="" style="rounded=0;whiteSpace=wrap;html=1;" vertex="1" parent="1">
          <mxGeometry x="20" y="550" width="260" height="420" as="geometry" />
        </mxCell>
        <mxCell id="fUjeLNTMd9WjojMspVFU-21" value="" style="rounded=0;whiteSpace=wrap;html=1;" vertex="1" parent="1">
          <mxGeometry x="310" y="540" width="250" height="420" as="geometry" />
        </mxCell>
        <mxCell id="fUjeLNTMd9WjojMspVFU-22" value="" style="rounded=0;whiteSpace=wrap;html=1;" vertex="1" parent="1">
          <mxGeometry x="600" y="540" width="240" height="420" as="geometry" />
        </mxCell>
        <mxCell id="fUjeLNTMd9WjojMspVFU-24" value="" style="rounded=0;whiteSpace=wrap;html=1;" vertex="1" parent="1">
          <mxGeometry x="65" y="580" width="170" height="80" as="geometry" />
        </mxCell>
        <mxCell id="fUjeLNTMd9WjojMspVFU-25" value="" style="rounded=0;whiteSpace=wrap;html=1;" vertex="1" parent="1">
          <mxGeometry x="350" y="570" width="170" height="80" as="geometry" />
        </mxCell>
        <mxCell id="fUjeLNTMd9WjojMspVFU-26" value="" style="rounded=0;whiteSpace=wrap;html=1;" vertex="1" parent="1">
          <mxGeometry x="640" y="570" width="170" height="80" as="geometry" />
        </mxCell>
        <mxCell id="fUjeLNTMd9WjojMspVFU-27" value="" style="rounded=0;whiteSpace=wrap;html=1;" vertex="1" parent="1">
          <mxGeometry x="65" y="870" width="170" height="80" as="geometry" />
        </mxCell>
        <mxCell id="fUjeLNTMd9WjojMspVFU-28" value="" style="rounded=0;whiteSpace=wrap;html=1;" vertex="1" parent="1">
          <mxGeometry x="360" y="860" width="170" height="80" as="geometry" />
        </mxCell>
        <mxCell id="fUjeLNTMd9WjojMspVFU-29" value="" style="rounded=0;whiteSpace=wrap;html=1;" vertex="1" parent="1">
          <mxGeometry x="650" y="860" width="170" height="80" as="geometry" />
        </mxCell>
      </root>
    </mxGraphModel>
  </diagram>
</mxfile>
